<mxfile host="65bd71144e">
    <diagram id="x7SDpz55iHpMg6yEMVJW" name="Page-1">
        <mxGraphModel dx="880" dy="494" grid="1" gridSize="10" guides="1" tooltips="1" connect="1" arrows="1" fold="1" page="1" pageScale="1" pageWidth="850" pageHeight="1100" math="0" shadow="0">
            <root>
                <mxCell id="0"/>
                <mxCell id="1" parent="0"/>
                <mxCell id="2" value="" style="rounded=0;whiteSpace=wrap;html=1;fillColor=#b1ddf0;strokeColor=#10739e;" vertex="1" parent="1">
                    <mxGeometry x="50" y="30" width="800" height="410" as="geometry"/>
                </mxCell>
                <mxCell id="3" value="User" style="rounded=0;whiteSpace=wrap;html=1;" vertex="1" parent="1">
                    <mxGeometry x="710" y="50" width="120" height="60" as="geometry"/>
                </mxCell>
                <mxCell id="4" value="Meus Livros" style="rounded=0;whiteSpace=wrap;html=1;" vertex="1" parent="1">
                    <mxGeometry x="80" y="50" width="120" height="60" as="geometry"/>
                </mxCell>
                <mxCell id="5" value="Favoritos" style="rounded=0;whiteSpace=wrap;html=1;" vertex="1" parent="1">
                    <mxGeometry x="220" y="50" width="120" height="60" as="geometry"/>
                </mxCell>
                <mxCell id="6" value="Meus progressos" style="rounded=0;whiteSpace=wrap;html=1;" vertex="1" parent="1">
                    <mxGeometry x="365" y="50" width="120" height="60" as="geometry"/>
                </mxCell>
                <mxCell id="7" value="Citação Da semana" style="rounded=0;whiteSpace=wrap;html=1;" vertex="1" parent="1">
                    <mxGeometry x="80" y="150" width="750" height="60" as="geometry"/>
                </mxCell>
                <mxCell id="8" value="livro(template star wars)" style="rounded=0;whiteSpace=wrap;html=1;" vertex="1" parent="1">
                    <mxGeometry x="80" y="240" width="160" height="130" as="geometry"/>
                </mxCell>
                <mxCell id="10" value="livro(template star wars)" style="rounded=0;whiteSpace=wrap;html=1;" vertex="1" parent="1">
                    <mxGeometry x="280" y="240" width="160" height="130" as="geometry"/>
                </mxCell>
                <mxCell id="11" value="livro(template star wars)" style="rounded=0;whiteSpace=wrap;html=1;" vertex="1" parent="1">
                    <mxGeometry x="480" y="240" width="160" height="130" as="geometry"/>
                </mxCell>
                <mxCell id="12" value="livro(template star wars)" style="rounded=0;whiteSpace=wrap;html=1;" vertex="1" parent="1">
                    <mxGeometry x="650" y="240" width="160" height="130" as="geometry"/>
                </mxCell>
                <mxCell id="13" value="" style="rounded=0;whiteSpace=wrap;html=1;fillColor=#b1ddf0;strokeColor=#10739e;" vertex="1" parent="1">
                    <mxGeometry x="50" y="460" width="800" height="410" as="geometry"/>
                </mxCell>
                <mxCell id="14" value="" style="ellipse;whiteSpace=wrap;html=1;aspect=fixed;" vertex="1" parent="1">
                    <mxGeometry x="70" y="480" width="150" height="150" as="geometry"/>
                </mxCell>
                <mxCell id="15" value="Nome e dados&amp;nbsp;" style="rounded=0;whiteSpace=wrap;html=1;" vertex="1" parent="1">
                    <mxGeometry x="260" y="490" width="510" height="110" as="geometry"/>
                </mxCell>
                <mxCell id="16" value="Bio" style="rounded=0;whiteSpace=wrap;html=1;" vertex="1" parent="1">
                    <mxGeometry x="70" y="660" width="740" height="120" as="geometry"/>
                </mxCell>
                <mxCell id="18" style="edgeStyle=none;html=1;exitX=1;exitY=0.5;exitDx=0;exitDy=0;" edge="1" parent="1" source="17" target="13">
                    <mxGeometry relative="1" as="geometry"/>
                </mxCell>
                <mxCell id="19" style="edgeStyle=none;html=1;exitX=0.75;exitY=0;exitDx=0;exitDy=0;entryX=0.821;entryY=0.007;entryDx=0;entryDy=0;entryPerimeter=0;" edge="1" parent="1" source="17" target="16">
                    <mxGeometry relative="1" as="geometry"/>
                </mxCell>
                <mxCell id="17" value="atualizar dados" style="rounded=0;whiteSpace=wrap;html=1;" vertex="1" parent="1">
                    <mxGeometry x="260" y="610" width="510" height="20" as="geometry"/>
                </mxCell>
                <mxCell id="20" value="" style="rounded=0;whiteSpace=wrap;html=1;fillColor=#b1ddf0;strokeColor=#10739e;" vertex="1" parent="1">
                    <mxGeometry x="80" y="1130" width="800" height="410" as="geometry"/>
                </mxCell>
                <mxCell id="21" value="MEus liVEOS" style="rounded=0;whiteSpace=wrap;html=1;" vertex="1" parent="1">
                    <mxGeometry x="190" y="1140" width="160" height="60" as="geometry"/>
                </mxCell>
                <mxCell id="22" value="ADICIONAR LIVRO" style="rounded=0;whiteSpace=wrap;html=1;" vertex="1" parent="1">
                    <mxGeometry x="600" y="1140" width="120" height="60" as="geometry"/>
                </mxCell>
                <mxCell id="23" value="" style="rounded=0;whiteSpace=wrap;html=1;" vertex="1" parent="1">
                    <mxGeometry x="110" y="1240" width="230" height="120" as="geometry"/>
                </mxCell>
                <mxCell id="24" value="" style="rounded=0;whiteSpace=wrap;html=1;" vertex="1" parent="1">
                    <mxGeometry x="365" y="1390" width="230" height="120" as="geometry"/>
                </mxCell>
                <mxCell id="25" value="" style="rounded=0;whiteSpace=wrap;html=1;" vertex="1" parent="1">
                    <mxGeometry x="630" y="1240" width="230" height="120" as="geometry"/>
                </mxCell>
                <mxCell id="26" value="" style="rounded=0;whiteSpace=wrap;html=1;" vertex="1" parent="1">
                    <mxGeometry x="365" y="1240" width="230" height="120" as="geometry"/>
                </mxCell>
                <mxCell id="27" value="" style="rounded=0;whiteSpace=wrap;html=1;" vertex="1" parent="1">
                    <mxGeometry x="110" y="1390" width="230" height="120" as="geometry"/>
                </mxCell>
                <mxCell id="28" value="" style="rounded=0;whiteSpace=wrap;html=1;" vertex="1" parent="1">
                    <mxGeometry x="630" y="1390" width="230" height="120" as="geometry"/>
                </mxCell>
                <mxCell id="29" value="PROGRESSO" style="rounded=0;whiteSpace=wrap;html=1;fillColor=#fad7ac;strokeColor=#b46504;fontColor=#0E25F0;" vertex="1" parent="1">
                    <mxGeometry x="120" y="1330" width="90" height="20" as="geometry"/>
                </mxCell>
                <mxCell id="30" value="FOTO" style="rounded=0;whiteSpace=wrap;html=1;fontColor=#0E25F0;" vertex="1" parent="1">
                    <mxGeometry x="240" y="1250" width="80" height="60" as="geometry"/>
                </mxCell>
                <mxCell id="31" value="tITULO&lt;br&gt;" style="rounded=0;whiteSpace=wrap;html=1;fontColor=#0E25F0;" vertex="1" parent="1">
                    <mxGeometry x="120" y="1250" width="100" height="60" as="geometry"/>
                </mxCell>
                <mxCell id="32" value="" style="endArrow=classic;html=1;fontColor=#0E25F0;exitX=0;exitY=0.366;exitDx=0;exitDy=0;exitPerimeter=0;" edge="1" parent="1" source="20">
                    <mxGeometry width="50" height="50" relative="1" as="geometry">
                        <mxPoint x="420" y="1460" as="sourcePoint"/>
                        <mxPoint x="120" y="1620" as="targetPoint"/>
                        <Array as="points">
                            <mxPoint x="40" y="1290"/>
                        </Array>
                    </mxGeometry>
                </mxCell>
                <mxCell id="33" value="" style="rounded=0;whiteSpace=wrap;html=1;fontColor=#0E25F0;" vertex="1" parent="1">
                    <mxGeometry x="80" y="1640" width="720" height="300" as="geometry"/>
                </mxCell>
                <mxCell id="34" value="" style="whiteSpace=wrap;html=1;aspect=fixed;fillColor=#d0cee2;strokeColor=#56517e;" vertex="1" parent="1">
                    <mxGeometry x="110" y="1670" width="230" height="230" as="geometry"/>
                </mxCell>
                <mxCell id="35" value="titulo" style="rounded=0;whiteSpace=wrap;html=1;fillColor=#bac8d3;strokeColor=#23445d;" vertex="1" parent="1">
                    <mxGeometry x="380" y="1670" width="370" height="30" as="geometry"/>
                </mxCell>
                <mxCell id="36" value="EDITAR&amp;nbsp; &amp;nbsp; &amp;nbsp; &amp;nbsp; &amp;nbsp; &amp;nbsp; &amp;nbsp; &amp;nbsp; &amp;nbsp; &amp;nbsp; PROGRESSO E NOTA&amp;nbsp; &amp;nbsp; &amp;nbsp; &amp;nbsp; &amp;nbsp; &amp;nbsp; &amp;nbsp; &amp;nbsp; &amp;nbsp; &amp;nbsp;EXCLUIR" style="rounded=0;whiteSpace=wrap;html=1;fontColor=#0E25F0;" vertex="1" parent="1">
                    <mxGeometry x="390" y="1850" width="360" height="50" as="geometry"/>
                </mxCell>
                <mxCell id="37" value="DESCRIÇÃO" style="rounded=0;whiteSpace=wrap;html=1;fillColor=#e6d0de;strokeColor=#996185;gradientColor=#d5739d;" vertex="1" parent="1">
                    <mxGeometry x="390" y="1720" width="350" height="110" as="geometry"/>
                </mxCell>
                <mxCell id="38" value="" style="endArrow=classic;html=1;fontColor=#0E25F0;exitX=0.597;exitY=0.867;exitDx=0;exitDy=0;exitPerimeter=0;" edge="1" parent="1" source="33">
                    <mxGeometry width="50" height="50" relative="1" as="geometry">
                        <mxPoint x="460" y="2010" as="sourcePoint"/>
                        <mxPoint x="460" y="2050" as="targetPoint"/>
                    </mxGeometry>
                </mxCell>
                <mxCell id="39" value="" style="rounded=0;whiteSpace=wrap;html=1;fontColor=#0E25F0;" vertex="1" parent="1">
                    <mxGeometry x="65" y="2055" width="720" height="300" as="geometry"/>
                </mxCell>
                <mxCell id="40" value="TITULO&lt;br&gt;EDITORA&lt;br&gt;AUTHOR&lt;br&gt;SINOPSE&lt;br&gt;" style="rounded=0;whiteSpace=wrap;html=1;fontColor=#0E25F0;" vertex="1" parent="1">
                    <mxGeometry x="110" y="2090" width="230" height="230" as="geometry"/>
                </mxCell>
                <mxCell id="41" value="ENVIE A IMAGEM" style="rounded=0;whiteSpace=wrap;html=1;fontColor=#0E25F0;" vertex="1" parent="1">
                    <mxGeometry x="400" y="2090" width="300" height="230" as="geometry"/>
                </mxCell>
                <mxCell id="42" value="NOTA" style="rounded=0;whiteSpace=wrap;html=1;fillColor=#ffcd28;gradientColor=#ffa500;strokeColor=#d79b00;" vertex="1" parent="1">
                    <mxGeometry x="230" y="1320" width="100" height="30" as="geometry"/>
                </mxCell>
            </root>
        </mxGraphModel>
    </diagram>
</mxfile>